<svg width="1024" height="1024" viewBox="0 0 1024 1024" fill="none" xmlns="http://www.w3.org/2000/svg">
<path d="M789.21 426L786.56 409.06C785.013 399.173 783.23 389.22 781.21 379.2C779.65 371.48 779.05 363.2 777.72 355.17C777.28 352.49 777.26 345.98 775.49 343.54C769.23 334.87 762.73 327.2 766.34 315.73C768.16 309.937 768.913 303.957 768.6 297.79C768.591 297.646 768.629 297.503 768.709 297.382C768.788 297.261 768.904 297.169 769.04 297.12C797.92 286.68 801.26 247.78 780.26 227.84C768.05 216.26 750.58 213.73 735.79 222.05C720.22 230.81 716.61 250.35 725.34 265.02C729.79 272.5 738.12 278.38 743.42 286.18C743.727 286.633 743.657 286.76 743.21 286.56C743.07 286.5 742.923 286.387 742.77 286.22C736.17 278.96 727.997 274.04 718.25 271.46C710.877 269.853 705.373 269.09 701.74 269.17C696.43 269.29 685.95 272.5 682.51 278.31C682.35 278.577 682.23 278.557 682.15 278.25C681.13 274.37 678.84 274.2 674.88 273.13C661.767 269.597 650.423 272.52 640.85 281.9C634.71 289.43 630.11 297.5 628.58 307.29C626.58 319.99 625.84 333.4 622.85 345.84C621.51 351.46 622.09 357.12 621.89 362.87C621.888 362.933 621.873 362.994 621.845 363.05C621.817 363.106 621.778 363.156 621.73 363.195C621.682 363.235 621.625 363.264 621.565 363.28C621.505 363.297 621.442 363.3 621.38 363.29C612.37 361.84 606.66 357.35 599.5 352.68C599.348 352.581 599.218 352.451 599.117 352.3C599.017 352.149 598.948 351.979 598.915 351.8C598.883 351.621 598.887 351.438 598.927 351.261C598.967 351.084 599.043 350.917 599.15 350.77C603.9 344.23 603.57 337.32 601.2 329.39C595.04 308.79 579.66 288.89 557.25 284.96C542.7 283.04 529.17 288.02 516.31 294C516.209 294.047 516.099 294.07 515.988 294.066C515.877 294.063 515.769 294.033 515.673 293.979C515.577 293.925 515.495 293.848 515.435 293.756C515.376 293.664 515.34 293.559 515.33 293.45C514.54 285.25 510.42 275.92 507.49 268.29C507.436 268.145 507.347 268.015 507.231 267.912C507.115 267.809 506.975 267.735 506.824 267.698C506.672 267.661 506.514 267.66 506.362 267.697C506.209 267.734 506.068 267.807 505.95 267.91C477.06 293.29 447.35 318.14 417.89 343.13C398.923 359.21 379.77 375.063 360.43 390.69C349.47 399.54 338.42 410.75 326.44 416.09C316.47 420.54 305.96 435.31 295.19 435.29C287.54 435.28 282.63 437.73 276.22 442.72C267.873 449.213 259.59 455.727 251.37 462.26C245.7 467.18 240.32 470.04 232.59 470.8C219.837 472.06 207.04 475.03 194.2 479.71C167.77 489.35 139.27 511.26 134.16 540.43C133.38 544.843 133.227 550.29 133.7 556.77C140.247 573.577 151.34 586.5 166.98 595.54C200.267 614.787 236.163 627.387 274.67 633.34C274.852 633.368 275.024 633.439 275.172 633.549C275.32 633.659 275.439 633.803 275.52 633.97C284.167 652.263 298.913 660.72 319.76 659.34C331.71 658.55 342.59 650.97 347.09 639.65C347.377 638.93 347.88 638.517 348.6 638.41C348.735 638.392 348.873 638.428 348.989 638.513C349.105 638.598 349.191 638.725 349.23 638.87C353.77 655.37 374.85 661.93 390.25 660.79C404.56 659.84 425.6 650.05 426.1 633.14C426.14 631.83 427.36 630.6 428.17 632.5C436.43 651.96 459.95 657.01 478.76 652.02C491.85 648.54 505.69 638.43 508.06 624.29C508.287 622.957 508.73 622.88 509.39 624.06C510.31 625.71 511.29 627.18 512.78 628.42C531.55 643.99 563.54 633.07 573.7 612.47C575.85 608.1 577.02 602.2 578.58 597.13L578.603 597.058C579.145 595.352 580.031 594.003 581.26 593.01L586.17 593.79L587.18 586.94C587.217 586.893 587.267 586.858 587.325 586.838C587.383 586.818 587.447 586.813 587.514 586.825C587.58 586.837 587.646 586.864 587.706 586.905C587.766 586.946 587.819 586.999 587.86 587.06C604.19 611.65 626.76 606.97 649.45 593.76C650.62 593.07 654.42 591.98 652.28 595.28C642.94 609.69 625.95 617.65 609.2 613.39C599.41 610.9 589 604.09 586.17 593.79L581.26 593.01C580.031 594.003 579.145 595.352 578.603 597.058C580.199 600.499 583.395 605.721 588.48 613.24C601.107 623.853 615.51 627.037 631.69 622.79C642 620.08 657.41 611.26 658.8 599.44C659.06 597.25 659.14 593.28 661.07 592.16C661.115 592.135 661.166 592.122 661.217 592.123C661.269 592.125 661.32 592.141 661.365 592.169C661.411 592.197 661.449 592.237 661.476 592.284C661.503 592.332 661.518 592.385 661.52 592.44C661.61 603.51 671.44 609.92 680.5 612.95C701.02 619.817 719.187 616.237 735 602.21C738.65 598.03 741.09 595.58 742.41 591.26C743.52 587.65 742.76 583.09 743.67 578.96C743.89 577.953 744.103 577.957 744.31 578.97C744.723 580.99 745.233 582.983 745.84 584.95C747.72 591.05 759.86 594.79 765.46 595.26C805.54 598.62 833.82 558.66 814.08 522.49L802.09 509.83C801.976 509.71 801.827 509.63 801.664 509.599C801.501 509.569 801.332 509.59 801.18 509.66L799.06 510.63C798.875 510.716 798.673 510.753 798.469 510.738C798.265 510.724 798.065 510.659 797.886 510.548C797.707 510.436 797.553 510.283 797.437 510.099C797.322 509.915 797.247 509.707 797.22 509.49L796.16 500.56C796.04 499.507 795.487 498.647 794.5 497.98C788.58 493.97 787.79 489.75 791.21 483.63C793.697 479.19 794.64 474.313 794.04 469L792.25 448.79L791.04 438.75L789.21 426Z" fill="white"/>
<path d="M586.17 593.79C589 604.09 599.41 610.9 609.2 613.39C625.95 617.65 642.94 609.69 652.28 595.28C654.42 591.98 650.62 593.07 649.45 593.76C626.76 606.97 604.19 611.65 587.86 587.06C587.819 586.999 587.766 586.946 587.706 586.905C587.646 586.864 587.58 586.837 587.514 586.825C587.447 586.813 587.383 586.818 587.325 586.838C587.267 586.858 587.217 586.893 587.18 586.94L586.17 593.79Z" fill="#81049C"/>
<path d="M404.54 601.5C401.86 599.15 406.57 597.95 408.27 597.82C408.405 597.81 408.547 597.761 408.685 597.677C408.823 597.592 408.954 597.474 409.07 597.33L410.17 595.92C410.233 595.844 410.251 595.721 410.222 595.572C410.193 595.423 410.118 595.257 410.01 595.1C409.297 594.06 409.363 593.027 410.21 592" stroke="#1B102C" stroke-width="2"/>
<path d="M410.21 592C418.79 590.61 427.32 589.46 435.86 587.58C444.313 585.727 452.783 583.953 461.27 582.26C476.53 579.22 487.5 575.59 505.18 568.13C521.4 561.29 539.07 554.69 556.74 553.36C560.353 553.093 563.527 552.793 566.26 552.46C572.15 551.74 579.89 551.36 586.51 549.53C599.73 545.87 623.44 538.87 642.22 533.68C660.25 528.7 678.18 523.05 696.15 518.12C722.19 510.973 746.563 503.873 769.27 496.82C770.91 496.32 773.84 495.06 774.56 493.24C775.66 490.51 772.28 491.31 771.03 491.8C732.51 506.72 696.48 515.64 648.13 529.73C643.46 531.09 636.67 532.67 630.5 534.49C620.193 537.543 607.407 541.037 592.14 544.97C584.65 546.9 575.13 549.24 569.01 549.52C541.4 550.81 520.33 559.68 491.69 570.37C470.2 578.39 446.47 581.88 426.31 586.04C418.183 587.72 409.997 588.97 401.75 589.79" stroke="#261A3A" stroke-width="2"/>
<path d="M401.75 589.79C392.61 590.83 383.457 591.707 374.29 592.42C361.9 593.38 347.34 595.71 333.42 595.05C314.52 594.14 295.63 592.16 276.75 590.79" stroke="#1B102C" stroke-width="2"/>
<path d="M276.75 590.79C255.643 589.417 234.457 585.34 213.19 578.56C212.403 578.313 211.91 577.96 211.71 577.5" stroke="#241737" stroke-width="2"/>
<path d="M211.71 577.5C214.63 574.03 218.32 570.82 219.42 566.23C223.47 549.31 224 532.48 241.51 522.95C248.057 519.383 257.577 515.673 270.07 511.82C283.097 507.8 293.087 500.527 300.04 490" stroke="#530A69" stroke-width="2"/>
<path d="M324.42 469.11L330.5 463.71" stroke="#3C074C" stroke-width="2"/>
<path d="M332.5 463.71L334 464.71" stroke="#7C7786" stroke-width="2"/>
<path d="M398.94 408.52C399.873 411.38 401.793 415.143 404.7 419.81C415.4 437.01 428.26 443.78 447.8 454.66C470.633 467.367 493.38 480.223 516.04 493.23C521.313 496.263 526.737 499 532.31 501.44C533.01 501.747 533.003 502.037 532.29 502.31C521.483 506.45 510.79 510.84 500.21 515.48C495.55 517.52 490.14 518.57 485.05 516.21C473.58 510.9 459.79 503.31 444.83 496.39C428.19 488.68 409.04 491.95 393.23 501.1C389.397 503.32 386.663 505.3 385.03 507.04C379.257 513.207 373.217 519.097 366.91 524.71C362.637 528.517 359.74 531.563 358.22 533.85C349.33 547.2 348.62 566.34 353.02 581.05" stroke="#530A69" stroke-width="2"/>
<path d="M353.02 581.05C354.3 583.937 356.157 586.313 358.59 588.18C358.819 588.355 359.102 588.447 359.389 588.44C359.677 588.433 359.953 588.327 360.17 588.14C366.12 583.05 364.1 574.51 364.02 567.5" stroke="#753C88" stroke-width="2"/>
<path d="M364.02 567.5C375.533 565.68 388.71 562.527 403.55 558.04C433.37 549.033 460.14 539.62 483.86 529.8" stroke="#530A69" stroke-width="2"/>
<path d="M483.86 529.8L490.26 527.52" stroke="#856592" stroke-width="2"/>
<path d="M490.26 527.52C535.71 509.56 584.18 490.82 626 470.96" stroke="#530A69" stroke-width="2"/>
<path d="M626 470.96C643.22 462.56 667.2 446.83 669.02 425.97C670.51 408.81 659.79 398.71 642.98 404.7C624.82 411.16 607.98 419.68 592.18 424.63C550.73 437.61 505.38 437.82 462.08 428.88C452.62 426.927 441.55 423.76 428.87 419.38" stroke="#4C0862" stroke-width="2"/>
<path d="M434.25 433.54C461.58 445.08 494.65 449.75 523.7 450.25C549.06 450.68 575.29 445.41 599.23 437.11" stroke="#C16DD3" stroke-width="2"/>
<path d="M490.26 527.52C476.053 519.14 461.6 511.22 446.9 503.76C435.09 497.76 427.88 496.18 415.43 498.93C404.19 501.41 393.55 506.01 386.35 513.85C380.237 520.497 374.177 526.183 368.17 530.91C364.283 533.977 361.297 538.257 359.21 543.75" stroke="#C162D3" stroke-width="2"/>
<path d="M359.21 543.75C355.243 553.337 353.59 563.337 354.25 573.75C354.337 575.15 353.927 577.583 353.02 581.05" stroke="#B23AC9" stroke-width="2"/>
<path d="M210.6 578.14C222.627 583.893 234.617 587.653 246.57 589.42C254.537 590.6 260.887 591.7 265.62 592.72C267.51 593.13 275.6 593.99 277.13 593.18C278.523 592.44 278.397 591.643 276.75 590.79" stroke="#291B3B" stroke-width="2"/>
<path d="M364.02 567.5C363.633 561.287 363.6 555.293 363.92 549.52" stroke="#B23AC9" stroke-width="2"/>
<path d="M410.21 592L402.25 592.74C402.094 592.755 401.936 592.73 401.791 592.667C401.646 592.604 401.518 592.506 401.42 592.38C400.747 591.52 400.857 590.657 401.75 589.79" stroke="#2A1E3E" stroke-width="2"/>
<path d="M211.71 577.5L210.6 578.14" stroke="#611478" stroke-width="2"/>
<path d="M210.6 578.14C195.373 572.54 181.757 565.41 169.75 556.75C169.237 556.383 168.75 556.383 168.29 556.75" stroke="#570E6D" stroke-width="2"/>
<path d="M626 470.96C624.25 469.49 629.67 467.85 630.48 467.58C630.524 467.564 630.564 467.538 630.597 467.503C630.63 467.467 630.656 467.424 630.672 467.375C630.688 467.326 630.694 467.273 630.69 467.219C630.686 467.165 630.673 467.11 630.65 467.06C630.563 466.873 630.56 466.703 630.64 466.55C630.662 466.505 630.676 466.457 630.682 466.408C630.687 466.359 630.683 466.312 630.671 466.268C630.659 466.224 630.638 466.186 630.61 466.155C630.582 466.125 630.548 466.102 630.51 466.09C629.35 465.72 629.08 464.71 628.35 464.11C622.19 458.99 614.81 457.74 610.8 450.64C610.067 449.347 608.52 448.18 606.16 447.14C603.907 446.147 601.503 443.84 598.95 440.22C598.892 440.136 598.789 440.068 598.653 440.024C598.518 439.98 598.354 439.961 598.18 439.97C596.393 440.057 596.33 439.79 597.99 439.17C598.036 439.152 598.078 439.126 598.114 439.093C598.15 439.06 598.179 439.022 598.199 438.98C598.22 438.938 598.231 438.894 598.233 438.849C598.235 438.804 598.227 438.76 598.21 438.72C597.983 438.167 598.323 437.63 599.23 437.11" stroke="#8806A3" stroke-width="2"/>
<path d="M599.23 437.11C605.63 435.17 611.683 432.457 617.39 428.97C617.8 428.72 618.62 427.4 617.02 427.82C605.727 430.793 594.42 433.653 583.1 436.4C544.54 445.773 506.007 445.72 467.5 436.24C456.067 433.427 446.163 430.18 437.79 426.5" stroke="#BA6BCC" stroke-width="2"/>
<path d="M483.86 529.8C482.247 528.733 478.647 526.867 473.06 524.2C468.707 522.127 458.15 516.683 441.39 507.87C435.44 504.74 430.34 502.7 424.32 503.31C416.28 504.117 408.303 506.497 400.39 510.45C390.24 515.53 386.16 523.99 378.25 530.66C371.42 536.42 366.28 540.32 363.92 549.52" stroke="#C162D3" stroke-width="2"/>
<path d="M363.92 549.52C362.867 548.38 362.41 547.003 362.55 545.39C362.561 545.249 362.525 545.109 362.449 544.992C362.373 544.874 362.261 544.786 362.13 544.74L359.21 543.75" stroke="#E495F1" stroke-width="2"/>
<path d="M738.54 264.14C727.85 256.19 730.01 239.39 739.69 232.33C746.22 227.57 755.19 226.45 762.89 228.81C786.06 235.9 791.15 273.73 768.93 285.57C768.29 285.91 768.09 285.74 768.33 285.06C772.37 273.52 774.8 259.54 771.49 247.51C769.73 241.1 764.97 234.63 758.01 233.46C748.58 231.87 740.12 236.4 738.67 246.02C737.8 251.81 739.53 257.61 740.59 262.83C741.05 265.063 740.367 265.5 738.54 264.14Z" fill="#850BA5"/>
<path d="M404.54 601.5C401.86 599.15 406.57 597.95 408.27 597.82C408.405 597.81 408.547 597.761 408.685 597.677C408.823 597.592 408.954 597.474 409.07 597.33L410.17 595.92C410.233 595.844 410.251 595.721 410.222 595.572C410.193 595.423 410.118 595.257 410.01 595.1C409.297 594.06 409.363 593.027 410.21 592C418.79 590.61 427.32 589.46 435.86 587.58C444.313 585.727 452.783 583.953 461.27 582.26C476.53 579.22 487.5 575.59 505.18 568.13C521.4 561.29 539.07 554.69 556.74 553.36C560.353 553.093 563.527 552.793 566.26 552.46C572.15 551.74 579.89 551.36 586.51 549.53C599.73 545.87 623.44 538.87 642.22 533.68C660.25 528.7 678.18 523.05 696.15 518.12C722.19 510.973 746.563 503.873 769.27 496.82C770.91 496.32 773.84 495.06 774.56 493.24C775.66 490.51 772.28 491.31 771.03 491.8C732.51 506.72 696.48 515.64 648.13 529.73C643.46 531.09 636.67 532.67 630.5 534.49C620.193 537.543 607.407 541.037 592.14 544.97C584.65 546.9 575.13 549.24 569.01 549.52C541.4 550.81 520.33 559.68 491.69 570.37C470.2 578.39 446.47 581.88 426.31 586.04C418.183 587.72 409.997 588.97 401.75 589.79C392.61 590.83 383.457 591.707 374.29 592.42C361.9 593.38 347.34 595.71 333.42 595.05C314.52 594.14 295.63 592.16 276.75 590.79C255.643 589.417 234.457 585.34 213.19 578.56C212.403 578.313 211.91 577.96 211.71 577.5C214.63 574.03 218.32 570.82 219.42 566.23C223.47 549.31 224 532.48 241.51 522.95C248.057 519.383 257.577 515.673 270.07 511.82C283.097 507.8 293.087 500.527 300.04 490C309.01 496.17 323.97 507.26 331.94 496.3C335.67 491.17 335.6 484.69 331.45 479.83C328.443 476.303 326.1 472.73 324.42 469.11L330.5 463.71H332.5L334 464.71C340.04 469.417 346.053 474.16 352.04 478.94C360.51 485.69 371.21 478.83 372.01 469.28C372.89 458.82 361.94 452.82 358.33 442.22C358.276 442.063 358.269 441.893 358.31 441.729C358.35 441.566 358.437 441.417 358.56 441.3L365.1 435.06C366.067 434.133 367.017 434.21 367.95 435.29C375.443 443.957 382.68 451.807 389.66 458.84C391.86 461.05 396.3 460.66 399.38 460.06C414.51 457.06 404.72 434.96 400.7 426.88C398.4 422.27 395.29 420.7 392.42 417.35C392.319 417.234 392.251 417.092 392.221 416.94C392.191 416.788 392.201 416.629 392.25 416.48C393.39 412.873 395.62 410.22 398.94 408.52C399.873 411.38 401.793 415.143 404.7 419.81C415.4 437.01 428.26 443.78 447.8 454.66C470.633 467.367 493.38 480.223 516.04 493.23C521.313 496.263 526.737 499 532.31 501.44C533.01 501.747 533.003 502.037 532.29 502.31C521.483 506.45 510.79 510.84 500.21 515.48C495.55 517.52 490.14 518.57 485.05 516.21C473.58 510.9 459.79 503.31 444.83 496.39C428.19 488.68 409.04 491.95 393.23 501.1C389.397 503.32 386.663 505.3 385.03 507.04C379.257 513.207 373.217 519.097 366.91 524.71C362.637 528.517 359.74 531.563 358.22 533.85C349.33 547.2 348.62 566.34 353.02 581.05C354.3 583.937 356.157 586.313 358.59 588.18C358.819 588.355 359.102 588.447 359.389 588.44C359.677 588.433 359.953 588.327 360.17 588.14C366.12 583.05 364.1 574.51 364.02 567.5C375.533 565.68 388.71 562.527 403.55 558.04C433.37 549.033 460.14 539.62 483.86 529.8L490.26 527.52C535.71 509.56 584.18 490.82 626 470.96C643.22 462.56 667.2 446.83 669.02 425.97C670.51 408.81 659.79 398.71 642.98 404.7C624.82 411.16 607.98 419.68 592.18 424.63C550.73 437.61 505.38 437.82 462.08 428.88C452.62 426.927 441.55 423.76 428.87 419.38C427.23 418.893 426.227 418.143 425.86 417.13C425.273 415.523 425.83 414.78 427.53 414.9C435.65 415.45 452.66 416.08 454.2 405.15C455.6 395.21 449.2 393.01 440.57 390.37C435.777 388.903 431.053 387.193 426.4 385.24C426.347 385.219 426.299 385.186 426.261 385.142C426.223 385.099 426.196 385.048 426.181 384.991C426.167 384.935 426.165 384.876 426.177 384.818C426.189 384.761 426.214 384.707 426.25 384.66C428.9 381.35 431.76 377.7 435.75 375.96C439.497 374.327 442.56 371.78 444.94 368.32C444.976 368.267 445.023 368.222 445.077 368.187C445.131 368.153 445.191 368.13 445.254 368.119C445.317 368.109 445.381 368.112 445.442 368.127C445.503 368.143 445.561 368.171 445.61 368.21C450.43 371.97 453.83 371.35 460.89 371.01C475.863 370.283 490.82 369.423 505.76 368.43C513.34 367.93 526.41 366.47 528.09 358.35C529.44 351.84 526.45 347.76 520.12 346.64C504.26 343.83 489.52 344.71 473.59 345.32C471.883 345.387 471.733 344.933 473.14 343.96C480.96 338.527 489.01 332.633 497.29 326.28C501.94 322.7 510.47 319.65 516.18 318.24C547.05 310.61 574.49 347.31 598.13 362.01C603.683 365.463 609.077 368.277 614.31 370.45C639.17 380.8 668.81 371.71 687.09 353.1C690.12 350.01 692.04 346.16 691.61 341.57C691.003 335.177 689.22 329.15 686.26 323.49C682.81 316.91 686.46 314.07 687.58 307.98C689.34 298.48 691.597 290.343 694.35 283.57C697.16 276.69 710.68 277.92 716.08 279.67C724.207 282.317 730.78 286 735.8 290.72C743.827 298.253 749.383 306.103 752.47 314.27C756.08 323.82 759.35 334.07 764.09 343.11C765.89 346.54 768.01 350.07 768.96 353.74C770.92 361.33 770.93 369.79 772.07 376.57C777.1 406.6 781.62 435.22 784.67 466.81C785.41 474.5 782.83 480.79 778.97 487.05C778.8 487.324 778.717 487.655 778.73 488C778.923 491.593 779.907 494.95 781.68 498.07C781.713 498.127 781.733 498.191 781.74 498.257C781.746 498.323 781.738 498.39 781.716 498.453C781.694 498.517 781.659 498.575 781.613 498.624C781.568 498.674 781.512 498.713 781.45 498.74C757.37 509.06 730.78 516.08 705.67 523.62C649.263 540.56 609.85 552.153 587.43 558.4C581.43 560.07 574.1 558.96 567.84 559.84C542.89 563.35 523.9 567.57 503.22 577.51C498.42 579.81 494.84 581.46 489.66 582.87C461.66 590.47 433.38 597.86 404.54 601.5Z" fill="#160C28"/>
<path d="M679.37 286.32C680.38 284.61 683.56 291.98 683.66 292.36C683.94 293.427 683.777 293.5 683.17 292.58L679.49 287.01C679.409 286.884 679.355 286.752 679.333 286.629C679.312 286.507 679.325 286.4 679.37 286.32Z" fill="#E2E1E3"/>
<path d="M517.84 305.97C517.721 305.853 517.654 305.693 517.652 305.525C517.65 305.357 517.714 305.194 517.83 305.07C519.06 303.75 520.35 302.5 522.01 301.65C537.31 293.83 554.35 289.38 570.05 299.38C583.14 307.71 599.24 329.47 591.44 346.28C591.413 346.338 591.374 346.39 591.326 346.432C591.278 346.474 591.222 346.505 591.162 346.524C591.102 346.542 591.04 346.546 590.979 346.537C590.918 346.528 590.86 346.505 590.81 346.47C589.07 345.3 587.12 344.06 585.58 342.65C571.28 329.51 552.16 313.04 533.26 308.97C531.86 308.67 520.74 308.85 517.84 305.97Z" fill="#160C28"/>
<path d="M677.39 308.36C677.44 308.18 678.26 306.59 677.99 308.25C677.27 312.777 677.31 317.29 678.11 321.79C678.16 322.1 677.85 322.99 677.54 323.05C677.484 323.063 677.424 323.057 677.364 323.034C677.304 323.011 677.246 322.972 677.192 322.917C677.138 322.862 677.09 322.793 677.05 322.715C677.01 322.637 676.98 322.55 676.96 322.46C675.913 317.72 676.057 313.02 677.39 308.36Z" fill="#AEABB1"/>
<path d="M455.91 323.08C444.65 333.747 432.64 343.477 419.88 352.27C412.13 357.61 405.48 363.84 398.18 369.65C397.467 370.217 396.853 370.41 396.34 370.23C396.288 370.211 396.243 370.177 396.21 370.132C396.177 370.087 396.158 370.032 396.153 369.973C396.147 369.914 396.158 369.852 396.182 369.793C396.206 369.735 396.243 369.682 396.29 369.64C400.11 366.23 404.03 361.05 408.43 358.69C411.197 357.21 413.68 355.347 415.88 353.1C416.107 352.867 416.38 352.697 416.7 352.59C418.387 352.03 420.263 350.943 422.33 349.33C431.003 342.517 438.28 336.197 444.16 330.37C444.973 329.557 446.193 328.697 447.82 327.79C450.013 326.57 452.227 324.707 454.46 322.2C457.16 319.18 462.81 314.48 471.41 308.1C471.49 308.04 472.26 307.8 471.8 308.32C466.91 313.87 460.37 318.85 455.91 323.08Z" fill="#FCF7FD"/>
<path d="M635.89 366.84C634.15 366.9 633.14 366.19 635.36 366.09C649.68 365.49 662.2 363.35 674.08 355.46C674.4 355.247 674.57 355.32 674.59 355.68C674.63 356.51 668.26 360.7 667.33 361.1C657.65 365.253 647.53 367.163 636.97 366.83C636.663 366.823 636.303 366.827 635.89 366.84Z" fill="#E2E1E3"/>
<path d="M626 470.96C624.25 469.49 629.67 467.85 630.48 467.58C630.524 467.564 630.564 467.538 630.597 467.503C630.63 467.468 630.656 467.424 630.672 467.375C630.687 467.326 630.694 467.273 630.69 467.219C630.686 467.165 630.673 467.11 630.65 467.06C630.563 466.873 630.56 466.703 630.64 466.55C630.662 466.505 630.676 466.457 630.682 466.408C630.687 466.359 630.683 466.312 630.671 466.268C630.659 466.224 630.638 466.186 630.61 466.155C630.582 466.125 630.548 466.102 630.51 466.09C629.35 465.72 629.08 464.71 628.35 464.11C622.19 458.99 614.81 457.74 610.8 450.64C610.067 449.347 608.52 448.18 606.16 447.14C603.907 446.147 601.503 443.84 598.95 440.22C598.892 440.136 598.789 440.068 598.653 440.024C598.517 439.98 598.354 439.961 598.18 439.97C596.393 440.057 596.33 439.79 597.99 439.17C598.036 439.152 598.078 439.126 598.114 439.093C598.15 439.06 598.179 439.022 598.199 438.98C598.22 438.938 598.231 438.894 598.233 438.849C598.235 438.804 598.227 438.76 598.21 438.72C597.983 438.167 598.323 437.63 599.23 437.11C605.63 435.17 611.683 432.457 617.39 428.97C617.8 428.72 618.62 427.4 617.02 427.82C605.727 430.793 594.42 433.653 583.1 436.4C544.54 445.773 506.007 445.72 467.5 436.24C456.067 433.427 446.163 430.18 437.79 426.5C434.403 425.013 431.43 422.64 428.87 419.38C441.55 423.76 452.62 426.927 462.08 428.88C505.38 437.82 550.73 437.61 592.18 424.63C607.98 419.68 624.82 411.16 642.98 404.7C659.79 398.71 670.51 408.81 669.02 425.97C667.2 446.83 643.22 462.56 626 470.96Z" fill="#81049C"/>
<path d="M434.25 433.54C461.58 445.08 494.65 449.75 523.7 450.25C549.06 450.68 575.29 445.41 599.23 437.11C598.323 437.63 597.983 438.167 598.21 438.72C598.227 438.76 598.235 438.804 598.233 438.849C598.231 438.894 598.22 438.938 598.199 438.98C598.179 439.022 598.15 439.06 598.114 439.093C598.078 439.126 598.036 439.152 597.99 439.17C596.33 439.79 596.393 440.057 598.18 439.97C598.354 439.961 598.517 439.98 598.653 440.024C598.789 440.068 598.892 440.136 598.95 440.22C601.503 443.84 603.907 446.147 606.16 447.14C608.52 448.18 610.067 449.347 610.8 450.64C614.81 457.74 622.19 458.99 628.35 464.11C629.08 464.71 629.35 465.72 630.51 466.09C630.548 466.102 630.582 466.125 630.61 466.155C630.638 466.186 630.659 466.224 630.671 466.268C630.683 466.312 630.687 466.359 630.681 466.408C630.676 466.457 630.662 466.505 630.64 466.55C630.56 466.703 630.563 466.873 630.65 467.06C630.673 467.11 630.686 467.165 630.69 467.219C630.694 467.273 630.687 467.326 630.671 467.375C630.655 467.424 630.63 467.467 630.597 467.503C630.564 467.538 630.524 467.564 630.48 467.58C629.67 467.85 624.25 469.49 626 470.96C584.18 490.82 535.71 509.56 490.26 527.52C476.053 519.14 461.6 511.22 446.9 503.76C435.09 497.76 427.88 496.18 415.43 498.93C404.19 501.41 393.55 506.01 386.35 513.85C380.237 520.497 374.177 526.183 368.17 530.91C364.283 533.977 361.297 538.257 359.21 543.75C355.243 553.337 353.59 563.337 354.25 573.75C354.337 575.15 353.927 577.583 353.02 581.05C348.62 566.34 349.33 547.2 358.22 533.85C359.74 531.563 362.637 528.517 366.91 524.71C373.217 519.097 379.257 513.207 385.03 507.04C386.663 505.3 389.397 503.32 393.23 501.1C409.04 491.95 428.19 488.68 444.83 496.39C459.79 503.31 473.58 510.9 485.05 516.21C490.14 518.57 495.55 517.52 500.21 515.48C510.79 510.84 521.483 506.45 532.29 502.31C533.003 502.037 533.01 501.747 532.31 501.44C526.737 499 521.313 496.263 516.04 493.23C493.38 480.223 470.633 467.367 447.8 454.66C428.26 443.78 415.4 437.01 404.7 419.81C401.793 415.143 399.873 411.38 398.94 408.52C399.56 407.98 400.243 407.653 400.99 407.54C401.134 407.519 401.286 407.538 401.431 407.595C401.575 407.653 401.709 407.747 401.82 407.87C411.97 419.11 420.76 427.5 434.25 433.54Z" fill="#8F07AA"/>
<path d="M437.79 426.5C446.163 430.18 456.067 433.427 467.5 436.24C506.007 445.72 544.54 445.773 583.1 436.4C594.42 433.653 605.727 430.793 617.02 427.82C618.62 427.4 617.8 428.72 617.39 428.97C611.683 432.457 605.63 435.17 599.23 437.11C575.29 445.41 549.06 450.68 523.7 450.25C494.65 449.75 461.58 445.08 434.25 433.54L436.67 431.63C436.958 431.406 437.145 431.118 437.19 430.83L437.79 426.5Z" fill="#F3D2FB"/>
<path d="M355.586 433.099C353.892 435.244 352.757 437.172 353.052 437.405C353.347 437.637 354.959 436.087 356.654 433.941C358.348 431.796 359.483 429.868 359.188 429.635C358.893 429.403 357.281 430.953 355.586 433.099Z" fill="#322145"/>
<path d="M330.5 463.71L324.42 469.11C323.01 463 318.67 459.02 314.18 455.07C314.138 455.033 314.103 454.99 314.076 454.943C314.049 454.896 314.03 454.846 314.022 454.797C314.014 454.748 314.015 454.7 314.027 454.655C314.039 454.611 314.06 454.572 314.09 454.54C314.96 453.64 328.55 462.32 330.5 463.71Z" fill="#620170"/>
<path d="M334 464.71L332.5 463.71C334.493 461.843 334.993 462.177 334 464.71Z" fill="#E2E1E3"/>
<path d="M300.04 490C293.087 500.527 283.097 507.8 270.07 511.82C257.577 515.673 248.057 519.383 241.51 522.95C224 532.48 223.47 549.31 219.42 566.23C218.32 570.82 214.63 574.03 211.71 577.5L210.6 578.14C195.373 572.54 181.757 565.41 169.75 556.75C169.237 556.383 168.75 556.383 168.29 556.75C171.29 529.16 208.76 506.76 232.09 498.81C241.78 495.51 254.28 494.05 262.88 489.74C272.33 485 274.78 478.21 286.7 477.4C287.047 477.373 287.127 477.503 286.94 477.79C275.95 494.77 256.89 495.7 242 500.24C220.54 506.77 204.58 524.57 203.75 547.48C203.57 552.353 204.657 557.263 207.01 562.21C208.02 564.34 212.85 569.02 212.01 562.11C211.67 559.32 211.98 556.92 211.99 554.22C212.08 521.55 246.16 511.93 270.89 504.51C281.92 501.2 288.33 495.66 297.6 487.94C297.692 487.863 297.814 487.829 297.941 487.846C298.068 487.862 298.19 487.929 298.28 488.03L300.04 490Z" fill="#8F07AA"/>
<path d="M410.21 592L402.25 592.74C402.094 592.755 401.936 592.73 401.791 592.667C401.646 592.604 401.518 592.506 401.42 592.38C400.747 591.52 400.857 590.657 401.75 589.79C409.997 588.97 418.183 587.72 426.31 586.04C446.47 581.88 470.2 578.39 491.69 570.37C520.33 559.68 541.4 550.81 569.01 549.52C575.13 549.24 584.65 546.9 592.14 544.97C607.407 541.037 620.193 537.543 630.5 534.49C636.67 532.67 643.46 531.09 648.13 529.73C696.48 515.64 732.51 506.72 771.03 491.8C772.28 491.31 775.66 490.51 774.56 493.24C773.84 495.06 770.91 496.32 769.27 496.82C746.563 503.873 722.19 510.973 696.15 518.12C678.18 523.05 660.25 528.7 642.22 533.68C623.44 538.87 599.73 545.87 586.51 549.53C579.89 551.36 572.15 551.74 566.26 552.46C563.527 552.793 560.353 553.093 556.74 553.36C539.07 554.69 521.4 561.29 505.18 568.13C487.5 575.59 476.53 579.22 461.27 582.26C452.783 583.953 444.313 585.727 435.86 587.58C427.32 589.46 418.79 590.61 410.21 592Z" fill="#35284C"/>
<path d="M490.26 527.52L483.86 529.8C482.247 528.733 478.647 526.867 473.06 524.2C468.707 522.127 458.15 516.683 441.39 507.87C435.44 504.74 430.34 502.7 424.32 503.31C416.28 504.117 408.303 506.497 400.39 510.45C390.24 515.53 386.16 523.99 378.25 530.66C371.42 536.42 366.28 540.32 363.92 549.52C362.867 548.38 362.41 547.003 362.55 545.39C362.561 545.249 362.525 545.109 362.449 544.992C362.373 544.874 362.261 544.786 362.13 544.74L359.21 543.75C361.297 538.257 364.283 533.977 368.17 530.91C374.177 526.183 380.237 520.497 386.35 513.85C393.55 506.01 404.19 501.41 415.43 498.93C427.88 496.18 435.09 497.76 446.9 503.76C461.6 511.22 476.053 519.14 490.26 527.52Z" fill="#F3BDFB"/>
<path d="M483.86 529.8C460.14 539.62 433.37 549.033 403.55 558.04C388.71 562.527 375.533 565.68 364.02 567.5C363.633 561.287 363.6 555.293 363.92 549.52C366.28 540.32 371.42 536.42 378.25 530.66C386.16 523.99 390.24 515.53 400.39 510.45C408.303 506.497 416.28 504.117 424.32 503.31C430.34 502.7 435.44 504.74 441.39 507.87C458.15 516.683 468.707 522.127 473.06 524.2C478.647 526.867 482.247 528.733 483.86 529.8Z" fill="#8F07AA"/>
<path d="M762.691 510.354L762.371 510.148C762.222 510.053 762.025 510.096 761.929 510.245L756.473 518.744C756.377 518.893 756.42 519.091 756.569 519.186L756.889 519.392C757.038 519.487 757.235 519.444 757.331 519.295L762.787 510.796C762.883 510.647 762.84 510.449 762.691 510.354Z" fill="#AEABB1"/>
<path d="M774.33 585.16C767.02 586.54 751.96 584.69 747.78 576.98C747.613 576.68 747.69 576.61 748.01 576.77C760.13 582.85 785.75 575.44 794.09 564.65C804.63 550.99 800.14 534.2 792.75 520.19C792.303 519.343 792.557 518.987 793.51 519.12C798.7 519.82 804.16 526.65 806.27 531C809.777 538.22 810.42 546.417 808.2 555.59C804.05 572.71 790.94 582.03 774.33 585.16Z" fill="#81049C"/>
<path d="M734.096 525.778C735.236 525.299 736.046 524.638 735.905 524.302C735.764 523.966 734.725 524.082 733.584 524.562C732.444 525.041 731.634 525.702 731.775 526.038C731.916 526.374 732.955 526.258 734.096 525.778Z" fill="#AEABB1"/>
<path d="M701.87 533.7C701.32 533.87 692.22 535.4 697.04 533.4C699.97 532.18 703.94 532.09 707.35 530.9C711.09 529.6 715.06 529.09 718.66 527.53C719.25 527.27 723.75 525.46 723.64 526.63C723.628 526.765 723.562 526.898 723.451 527.01C723.341 527.123 723.19 527.21 723.02 527.26C715.98 529.46 708.93 531.607 701.87 533.7Z" fill="#E2E1E3"/>
<path d="M680.321 538.608C682.737 537.738 684.588 536.734 684.455 536.365C684.322 535.996 682.256 536.402 679.84 537.272C677.423 538.142 675.572 539.146 675.705 539.515C675.838 539.884 677.904 539.478 680.321 538.608Z" fill="#AEABB1"/>
<path d="M654.26 547.5C654.22 547.893 654.067 548.25 653.8 548.57C653.696 548.688 653.553 548.769 653.388 548.803C653.224 548.837 653.047 548.822 652.88 548.76C651.09 548.1 652.31 547.16 653.29 546.84C656.697 545.72 659.85 543.823 662.75 541.15C663.743 540.23 664.323 540.44 664.49 541.78C664.577 542.427 664.01 542.827 662.79 542.98C662.463 543.02 662.147 543.143 661.84 543.35L655.71 547.45C655.578 547.537 655.423 547.581 655.265 547.575C655.108 547.57 654.955 547.516 654.83 547.42L654.69 547.31C654.43 547.11 654.287 547.173 654.26 547.5Z" fill="#E2E1E3"/>
<path d="M359.21 543.75L362.13 544.74C362.261 544.786 362.373 544.874 362.449 544.992C362.525 545.109 362.561 545.249 362.55 545.39C362.41 547.003 362.867 548.38 363.92 549.52C363.6 555.293 363.633 561.287 364.02 567.5C364.1 574.51 366.12 583.05 360.17 588.14C359.953 588.327 359.677 588.433 359.389 588.44C359.102 588.447 358.819 588.355 358.59 588.18C356.157 586.313 354.3 583.937 353.02 581.05C353.927 577.583 354.337 575.15 354.25 573.75C353.59 563.337 355.243 553.337 359.21 543.75Z" fill="#D46CE7"/>
<path d="M629.61 551.868L621.128 557.461C621.004 557.543 620.969 557.71 621.051 557.835L621.316 558.235C621.398 558.36 621.565 558.394 621.69 558.312L630.172 552.719C630.296 552.637 630.331 552.47 630.249 552.345L629.984 551.945C629.902 551.82 629.735 551.786 629.61 551.868Z" fill="#E2E1E3"/>
<path d="M210.6 578.14C222.627 583.893 234.617 587.653 246.57 589.42C254.537 590.6 260.887 591.7 265.62 592.72C267.51 593.13 275.6 593.99 277.13 593.18C278.523 592.44 278.397 591.643 276.75 590.79C295.63 592.16 314.52 594.14 333.42 595.05C347.34 595.71 361.9 593.38 374.29 592.42C383.457 591.707 392.61 590.83 401.75 589.79C400.857 590.657 400.747 591.52 401.42 592.38C401.518 592.506 401.646 592.604 401.791 592.667C401.936 592.73 402.094 592.755 402.25 592.74L410.21 592C409.363 593.027 409.297 594.06 410.01 595.1C410.118 595.257 410.193 595.423 410.222 595.572C410.251 595.721 410.233 595.844 410.17 595.92L409.07 597.33C408.954 597.474 408.823 597.592 408.685 597.677C408.547 597.761 408.405 597.81 408.27 597.82C406.57 597.95 401.86 599.15 404.54 601.5C400.367 602.233 396.167 602.79 391.94 603.17C354.253 606.583 316.593 606.597 278.96 603.21C263.38 601.8 247.27 599.23 231.57 596.69C214.31 593.89 192.35 587.93 178.68 576.46C172.773 571.507 169.31 564.937 168.29 556.75C168.75 556.383 169.237 556.383 169.75 556.75C181.757 565.41 195.373 572.54 210.6 578.14Z" fill="#1F1430"/>
<path d="M597.74 567.78L595.21 565.54C595.062 565.407 594.949 565.252 594.885 565.094C594.821 564.935 594.809 564.781 594.85 564.65C595.41 562.9 598.85 566.97 600.7 563.1C600.851 562.793 601.072 562.537 601.34 562.36L604.05 560.56C604.663 560.153 604.82 560.31 604.52 561.03C603.307 563.91 601.407 566.173 598.82 567.82C598.644 567.929 598.444 567.984 598.25 567.977C598.055 567.97 597.876 567.901 597.74 567.78Z" fill="#FCF7FD"/>
<path d="M542.2 571.03C545.21 571.83 536.68 574.22 537.12 571.97C537.135 571.889 537.165 571.812 537.208 571.743C537.25 571.674 537.304 571.615 537.366 571.57C537.428 571.525 537.497 571.494 537.568 571.481C537.64 571.467 537.712 571.47 537.78 571.49C538.927 571.823 540.053 571.697 541.16 571.11C541.441 570.956 541.815 570.928 542.2 571.03Z" fill="#E2E1E3"/>
<path d="M699.81 606.14C688.14 606.71 669.88 602.03 664.54 589.63C664.3 589.077 664.43 588.97 664.93 589.31C673.64 595.22 684.08 596.16 694.75 596.43C713.18 596.9 723.27 587.05 737.62 577.37C737.893 577.19 737.967 577.253 737.84 577.56C730.76 594.57 718.9 605.21 699.81 606.14Z" fill="#81049C"/>
<path d="M211.71 577.5C211.91 577.96 212.403 578.313 213.19 578.56C234.457 585.34 255.643 589.417 276.75 590.79C278.397 591.643 278.523 592.44 277.13 593.18C275.6 593.99 267.51 593.13 265.62 592.72C260.887 591.7 254.537 590.6 246.57 589.42C234.617 587.653 222.627 583.893 210.6 578.14L211.71 577.5Z" fill="#322145"/>
<path d="M516.95 579.33C517.15 577.21 521.56 579.31 517.66 579.99C517.568 580.006 517.473 580 517.383 579.973C517.293 579.947 517.211 579.899 517.142 579.836C517.073 579.772 517.02 579.693 516.987 579.605C516.954 579.518 516.941 579.423 516.95 579.33Z" fill="#E2E1E3"/>
<path d="M560.21 595.01C560.377 593.797 560.04 592.743 559.2 591.85C555.67 588.11 559.73 588.02 561.93 588.59C570.22 590.75 569.13 597.44 566.2 603.69C559.347 618.277 547.64 625.52 531.08 625.42C525.13 625.38 514.34 623.45 511.93 617.04C511.912 616.992 511.906 616.941 511.915 616.891C511.924 616.84 511.946 616.793 511.979 616.754C512.013 616.714 512.056 616.684 512.106 616.666C512.155 616.647 512.208 616.642 512.26 616.65C530.86 619.54 547.41 616.69 558.27 600.07C559.323 598.45 559.97 596.763 560.21 595.01Z" fill="#81049C"/>
<path d="M439.69 635.56C436.983 633.627 435.65 631.173 435.69 628.2C435.697 627.867 435.837 627.803 436.11 628.01C447.42 636.47 472.36 636.77 483.19 628.08C488 624.22 495.07 622.07 500.74 619.66C502.1 619.08 506.26 617.86 502.91 621.68C497.81 627.48 494.033 631.447 491.58 633.58C476.44 646.73 456.15 647.35 439.69 635.56Z" fill="#81049C"/>
<path d="M357.48 639.8C356.707 639.187 356.113 638.427 355.7 637.52C352.5 630.56 367.38 639.43 368.74 639.78C380.03 642.63 398.54 643.43 406.92 633.59C407.029 633.463 407.163 633.366 407.308 633.31C407.452 633.253 407.602 633.24 407.74 633.27C412.14 634.203 416.393 633.77 420.5 631.97C420.571 631.937 420.646 631.914 420.72 631.901C420.793 631.887 420.864 631.885 420.928 631.894C420.992 631.902 421.047 631.921 421.09 631.95C421.134 631.978 421.164 632.016 421.18 632.06L421.26 632.25C421.29 632.334 421.296 632.423 421.278 632.506C421.26 632.59 421.219 632.664 421.16 632.72C415.667 637.973 412.237 641.11 410.87 642.13C398.843 651.11 385.917 653.303 372.09 648.71C366.62 646.89 362.09 643.47 357.48 639.8Z" fill="#81049C"/>
<path d="M308.78 648.68C299.92 647.16 291.39 643.58 287.23 634.99C286.59 633.677 286.967 633.24 288.36 633.68C294.34 635.56 300.573 637.313 307.06 638.94C312.06 640.2 316.27 639.51 321.85 637.89C328.303 636.023 334.943 635.09 341.77 635.09C342.703 635.097 342.843 635.433 342.19 636.1C333.1 645.36 321.89 650.93 308.78 648.68Z" fill="#8F07AA"/>
<path d="M751 348.29L750.5 348.21" stroke="#504163" stroke-width="2"/>
<path d="M751 348.29L750.5 348.21C752.66 345.997 754.61 343.607 756.35 341.04C757.783 338.92 757.853 339.267 756.56 342.08C755.993 343.307 754.14 345.377 751 348.29Z" fill="#322145"/>
<path d="M750.5 348.21L751 348.29C748.1 351.417 744.84 354.05 741.22 356.19C734.63 360.08 724.86 361.88 716.95 364.62C709.15 367.32 701.28 366.72 693.4 364.86C693.225 364.821 693.068 364.757 692.949 364.675C692.829 364.593 692.753 364.497 692.73 364.4C692.62 364.01 693.21 363.91 693.48 363.96C700.86 365.45 709.41 366.19 716.53 363.31C721.023 361.497 726.123 360.013 731.83 358.86C738.883 357.44 745.107 353.89 750.5 348.21Z" fill="#6E6180"/>
<path d="M745.675 357.755L745.545 357.663C745.414 357.57 745.233 357.6 745.14 357.73L740.297 364.52C740.204 364.65 740.235 364.831 740.365 364.924L740.495 365.017C740.626 365.11 740.807 365.08 740.9 364.95L745.743 358.16C745.836 358.03 745.805 357.848 745.675 357.755Z" fill="#322145"/>
<path d="M733.88 380.35L735.75 361C735.765 360.855 735.825 360.718 735.922 360.608C736.019 360.499 736.148 360.423 736.29 360.39C736.77 360.277 736.977 360.567 736.91 361.26C736.117 368.873 735.777 375.057 735.89 379.81C735.893 379.962 735.865 380.109 735.808 380.239C735.75 380.37 735.665 380.48 735.56 380.56C735.227 380.813 734.893 380.963 734.56 381.01C734.471 381.024 734.38 381.018 734.294 380.99C734.209 380.963 734.13 380.915 734.064 380.852C733.999 380.788 733.948 380.71 733.916 380.623C733.884 380.536 733.872 380.442 733.88 380.35Z" fill="#5A4970"/>
<path d="M724.469 362.832L724.289 362.838C723.924 362.848 723.638 363.153 723.649 363.517L724.272 384.528C724.283 384.892 724.587 385.179 724.951 385.168L725.131 385.162C725.496 385.152 725.782 384.847 725.771 384.483L725.148 363.472C725.137 363.108 724.833 362.821 724.469 362.832Z" fill="#5A4970"/>
</svg>
